<svg fill="#000000" xmlns="http://www.w3.org/2000/svg"  viewBox="0 0 80 80" width="80px" height="80px"><path d="M 61 10 C 56.042969 10 52 14.042969 52 19 C 52 21.164063 52.769531 23.152344 54.046875 24.703125 C 54.015625 24.800781 54 24.898438 54 25 C 54 25.550781 54.449219 26 55 26 C 55.101563 26 55.199219 25.984375 55.296875 25.953125 C 56.851563 27.230469 58.839844 28 61 28 C 65.957031 28 70 23.957031 70 19 C 70 14.042969 65.957031 10 61 10 Z M 61 12 C 64.878906 12 68 15.121094 68 19 C 68 22.878906 64.878906 26 61 26 C 57.121094 26 54 22.878906 54 19 C 54 15.121094 57.121094 12 61 12 Z M 61 14 C 60.449219 14 60 14.449219 60 15 C 60 15.550781 60.449219 16 61 16 C 61.550781 16 62 15.550781 62 15 C 62 14.449219 61.550781 14 61 14 Z M 57 18 C 56.449219 18 56 18.449219 56 19 C 56 19.550781 56.449219 20 57 20 C 57.550781 20 58 19.550781 58 19 C 58 18.449219 57.550781 18 57 18 Z M 65 18 C 64.449219 18 64 18.449219 64 19 C 64 19.550781 64.449219 20 65 20 C 65.550781 20 66 19.550781 66 19 C 66 18.449219 65.550781 18 65 18 Z M 61 22 C 60.449219 22 60 22.449219 60 23 C 60 23.550781 60.449219 24 61 24 C 61.550781 24 62 23.550781 62 23 C 62 22.449219 61.550781 22 61 22 Z M 52 27 C 51.449219 27 51 27.449219 51 28 C 51 28.550781 51.449219 29 52 29 C 52.550781 29 53 28.550781 53 28 C 53 27.449219 52.550781 27 52 27 Z M 49 30 C 48.449219 30 48 30.449219 48 31 C 48 31.550781 48.449219 32 49 32 C 49.550781 32 50 31.550781 50 31 C 50 30.449219 49.550781 30 49 30 Z M 19 31 C 14.042969 31 10 35.042969 10 40 C 10 44.957031 14.042969 49 19 49 C 23.621094 49 27.441406 45.488281 27.941406 41 C 27.960938 41 27.980469 41 28 41 C 28.550781 41 29 40.550781 29 40 C 29 39.449219 28.550781 39 28 39 C 27.980469 39 27.960938 39.003906 27.941406 39.003906 C 27.441406 34.511719 23.621094 31 19 31 Z M 19 33 C 22.878906 33 26 36.121094 26 40 C 26 43.878906 22.878906 47 19 47 C 15.121094 47 12 43.878906 12 40 C 12 36.121094 15.121094 33 19 33 Z M 46 33 C 45.449219 33 45 33.449219 45 34 C 45 34.550781 45.449219 35 46 35 C 46.550781 35 47 34.550781 47 34 C 47 33.449219 46.550781 33 46 33 Z M 19 35 C 18.449219 35 18 35.449219 18 36 C 18 36.550781 18.449219 37 19 37 C 19.550781 37 20 36.550781 20 36 C 20 35.449219 19.550781 35 19 35 Z M 43 36 C 42.449219 36 42 36.449219 42 37 C 42 37.550781 42.449219 38 43 38 C 43.550781 38 44 37.550781 44 37 C 44 36.449219 43.550781 36 43 36 Z M 15 39 C 14.449219 39 14 39.449219 14 40 C 14 40.550781 14.449219 41 15 41 C 15.550781 41 16 40.550781 16 40 C 16 39.449219 15.550781 39 15 39 Z M 23 39 C 22.449219 39 22 39.449219 22 40 C 22 40.550781 22.449219 41 23 41 C 23.550781 41 24 40.550781 24 40 C 24 39.449219 23.550781 39 23 39 Z M 32 39 C 31.449219 39 31 39.449219 31 40 C 31 40.550781 31.449219 41 32 41 C 32.550781 41 33 40.550781 33 40 C 33 39.449219 32.550781 39 32 39 Z M 36 39 C 35.449219 39 35 39.449219 35 40 C 35 40.550781 35.449219 41 36 41 C 36.550781 41 37 40.550781 37 40 C 37 39.449219 36.550781 39 36 39 Z M 40 39 C 39.449219 39 39 39.449219 39 40 C 39 40.550781 39.449219 41 40 41 C 40.550781 41 41 40.550781 41 40 C 41 39.449219 40.550781 39 40 39 Z M 43 42 C 42.449219 42 42 42.449219 42 43 C 42 43.550781 42.449219 44 43 44 C 43.550781 44 44 43.550781 44 43 C 44 42.449219 43.550781 42 43 42 Z M 19 43 C 18.449219 43 18 43.449219 18 44 C 18 44.550781 18.449219 45 19 45 C 19.550781 45 20 44.550781 20 44 C 20 43.449219 19.550781 43 19 43 Z M 46 45 C 45.449219 45 45 45.449219 45 46 C 45 46.550781 45.449219 47 46 47 C 46.550781 47 47 46.550781 47 46 C 47 45.449219 46.550781 45 46 45 Z M 49 48 C 48.449219 48 48 48.449219 48 49 C 48 49.550781 48.449219 50 49 50 C 49.550781 50 50 49.550781 50 49 C 50 48.449219 49.550781 48 49 48 Z M 52 51 C 51.449219 51 51 51.449219 51 52 C 51 52.550781 51.449219 53 52 53 C 52.550781 53 53 52.550781 53 52 C 53 51.449219 52.550781 51 52 51 Z M 61 52 C 58.835938 52 56.847656 52.769531 55.296875 54.046875 C 55.199219 54.015625 55.101563 54 55 54 C 54.449219 54 54 54.449219 54 55 C 54 55.101563 54.015625 55.199219 54.046875 55.296875 C 52.769531 56.851563 52 58.839844 52 61 C 52 65.957031 56.042969 70 61 70 C 65.957031 70 70 65.957031 70 61 C 70 56.042969 65.957031 52 61 52 Z M 61 54 C 64.878906 54 68 57.121094 68 61 C 68 64.878906 64.878906 68 61 68 C 57.121094 68 54 64.878906 54 61 C 54 57.121094 57.121094 54 61 54 Z M 61 56 C 60.449219 56 60 56.449219 60 57 C 60 57.550781 60.449219 58 61 58 C 61.550781 58 62 57.550781 62 57 C 62 56.449219 61.550781 56 61 56 Z M 57 60 C 56.449219 60 56 60.449219 56 61 C 56 61.550781 56.449219 62 57 62 C 57.550781 62 58 61.550781 58 61 C 58 60.449219 57.550781 60 57 60 Z M 65 60 C 64.449219 60 64 60.449219 64 61 C 64 61.550781 64.449219 62 65 62 C 65.550781 62 66 61.550781 66 61 C 66 60.449219 65.550781 60 65 60 Z M 61 64 C 60.449219 64 60 64.449219 60 65 C 60 65.550781 60.449219 66 61 66 C 61.550781 66 62 65.550781 62 65 C 62 64.449219 61.550781 64 61 64 Z"/></svg>